<?xml version="1.0" encoding="UTF-8" standalone="no"?>
<!-- Created with Inkscape (http://www.inkscape.org/) -->

<svg
   width="28.000002mm"
   height="15.27292mm"
   viewBox="0 0 28.000002 15.27292"
   version="1.1"
   id="svg1"
   xmlns="http://www.w3.org/2000/svg"
   xmlns:svg="http://www.w3.org/2000/svg">
  <defs
     id="defs1" />
  <g
     id="layer1"
     transform="translate(-174.99999,-30.000002)">
    <path
       id="rect3-5"
       style="fill:#ff8c66;fill-opacity:1;stroke-width:0.13895"
       d="m 182.6362,29.999999 c -4.23057,0 -7.6362,3.405894 -7.6362,7.636459 0,4.230565 3.40563,7.636459 7.6362,7.636459 h 12.72735 c 4.23055,0 7.63644,-3.405894 7.63644,-7.636459 0,-4.230565 -3.40589,-7.636459 -7.63644,-7.636459 z m 5.80514,2.545573 a 5.1997486,5.0909804 0 0 1 4.15933,2.042563 v -1.533237 a 4.6797739,4.5818824 0 0 1 4.16009,2.482961 v -1.464837 a 3.639824,3.5636865 0 0 1 3.63999,3.563699 3.639824,3.5636865 0 0 1 -3.63999,3.563698 v -1.485357 a 4.6797739,4.5818824 0 0 1 -4.16009,2.503482 v -1.533238 a 5.1997486,5.0909804 0 0 1 -4.15933,2.042037 v -3.054374 h -10.9497 v -4.072497 h 10.9497 z" />
  </g>
</svg>
