<?xml version="1.0" encoding="UTF-8" standalone="no"?>
<!-- Created with Inkscape (http://www.inkscape.org/) -->

<svg
   width="43.179276mm"
   height="31.000175mm"
   viewBox="0 0 43.179276 31.000175"
   version="1.1"
   id="svg1"
   xmlns="http://www.w3.org/2000/svg"
   xmlns:svg="http://www.w3.org/2000/svg">
  <defs
     id="defs1" />
  <g
     id="layer1"
     transform="translate(-151.82073,-88.999824)">
    <path
       id="text1-8-88"
       style="font-size:9.59001px;font-family:'Adwaita Sans';-inkscape-font-specification:'Adwaita Sans, @opsz=32,wght=800';font-variation-settings:'opsz' 32, 'wght' 800;letter-spacing:0px;fill:#ffffff;fill-opacity:1;stroke-width:0.355747"
       d="m 172.42361,88.999822 v 5.870958 h -20.60288 v 7.82692 h 20.60288 v 5.86993 A 9.7838,9.7838003 0 0 0 180.25,104.6428 v 2.94659 a 8.8054207,8.80542 0 0 0 7.82742,-4.81108 v 2.85461 a 6.8486602,6.8486603 0 0 0 6.84868,-6.848683 6.8486602,6.8486603 0 0 0 -6.84868,-6.848677 v 2.814814 a 8.8054207,8.80542 0 0 0 -7.82742,-4.7718 v 2.946589 a 9.7838,9.7838003 0 0 0 -7.82639,-3.925341 z m -5.21622,15.499838 0.0181,8.85527 c 0,0.69892 0.11556,1.29834 0.34675,1.79834 0.23118,0.5 0.56445,0.88408 0.99994,1.1529 0.44086,0.26345 0.96788,0.39533 1.58078,0.39533 0.82258,0 1.48148,-0.22298 1.9761,-0.66921 0.28453,-0.25699 0.52589,-0.56762 0.73381,-0.92036 v 1.40405 h 2.74195 v -6.88124 c -0.80042,0.33374 -1.70217,0.54927 -2.79259,0.54467 l 0.0181,2.44947 c 0,0.38709 -0.059,0.70694 -0.17725,0.95963 -0.11828,0.24731 -0.28755,0.4329 -0.50798,0.55655 -0.21505,0.12366 -0.46777,0.18552 -0.75809,0.18552 -0.43548,0 -0.77691,-0.13426 -1.02423,-0.40308 -0.24193,-0.26881 -0.36167,-0.65342 -0.36277,-1.15341 l -0.0181,-8.27443 z m -15.33653,5.1e-4 v 12.01581 h 2.90318 v -3.8871 h 1.99988 c 0.92473,0 1.72605,-0.16638 2.40347,-0.49971 0.6828,-0.33334 1.2093,-0.80376 1.58027,-1.41129 0.37096,-0.60752 0.55655,-1.3254 0.55655,-2.15336 0,-0.83333 -0.18559,-1.55358 -0.55655,-2.1611 -0.3656,-0.60753 -0.88683,-1.07558 -1.56425,-1.40354 -0.67742,-0.33334 -1.47874,-0.49971 -2.40347,-0.49971 z m 10.55646,0 v 9.55601 c 0,0.87634 0.23402,1.5055 0.70177,1.88722 0.47311,0.38172 1.23364,0.57258 2.28203,0.57258 h 0.40307 0.4036 v -2.0805 h -0.17777 -0.16898 c -0.23119,0 -0.40098,-0.0513 -0.5085,-0.15347 -0.10752,-0.10215 -0.16123,-0.26616 -0.16123,-0.49196 v -9.28988 z m -7.65328,2.40296 h 1.81436 c 0.3871,0 0.72037,0.07 0.99994,0.2098 0.28495,0.13441 0.50554,0.32527 0.66146,0.57258 0.15591,0.24193 0.23409,0.53493 0.23409,0.87901 0,0.33334 -0.0782,0.62633 -0.23409,0.87902 -0.15592,0.24731 -0.37651,0.43817 -0.66146,0.57258 -0.27957,0.13441 -0.61284,0.20153 -0.99994,0.20153 h -1.81436 z m 30.92834,0.32504 c -3e-4,0.29043 -1.7383,1.34705 -2.74454,1.44384 l -0.0227,0.52142 h -0.008 c -0.17204,-0.30108 -0.3821,-0.55379 -0.62942,-0.7581 -0.24731,-0.2043 -0.52399,-0.35725 -0.83044,-0.4594 -0.30107,-0.10752 -0.63724,-0.16123 -1.00821,-0.16123 -0.72043,0 -1.35485,0.18796 -1.90324,0.56431 -0.54839,0.37096 -0.97853,0.88456 -1.29036,1.54047 -0.31183,0.65591 -0.46766,1.40591 -0.46766,2.24999 0,0.83334 0.15057,1.57228 0.45164,2.21744 0.30645,0.64516 0.7366,1.15349 1.29036,1.52445 0.55377,0.3656 1.20162,0.54829 1.94355,0.54829 0.37097,0 0.7124,-0.0513 1.02423,-0.15348 0.3172,-0.10215 0.5944,-0.26037 0.83096,-0.47542 0.24193,-0.21506 0.43805,-0.48936 0.58859,-0.82269 h 0.008 v 1.31465 c 0,0.56451 -0.13426,0.98887 -0.40307,1.27382 -0.26882,0.29032 -0.66106,0.43563 -1.17719,0.43563 -0.26344,0 -0.49747,-0.035 -0.70177,-0.1049 -0.2043,-0.0699 -0.37357,-0.16914 -0.50798,-0.29817 -0.13441,-0.12903 -0.22602,-0.2796 -0.2744,-0.45165 h -2.65307 c 0.086,0.54301 0.28741,1.02686 0.60462,1.45159 0.3172,0.4301 0.76604,0.76627 1.34668,1.0082 0.58065,0.24194 1.30957,0.36277 2.18592,0.36277 0.88709,0 1.65578,-0.13715 2.30632,-0.41134 0.65053,-0.27419 1.15019,-0.70145 1.49965,-1.28209 0.35483,-0.58065 0.53226,-1.33353 0.53226,-2.25826 z m 5.14438,0.59428 c -0.79032,0 -1.47318,0.11557 -2.04845,0.34675 -0.56989,0.22581 -1.0082,0.54565 -1.31465,0.95963 -0.30107,0.41398 -0.45165,0.90072 -0.45165,1.45986 0,0.67204 0.21771,1.22065 0.65319,1.64538 0.44086,0.42473 1.08055,0.71194 1.91926,0.86248 l 1.54048,0.2744 c 0.33871,0.0591 0.59431,0.14785 0.76636,0.26613 0.17742,0.11291 0.26613,0.26348 0.26613,0.45166 0,0.21505 -0.10792,0.38959 -0.32298,0.52399 -0.21505,0.13442 -0.51331,0.20154 -0.89503,0.20154 -0.40323,0 -0.72596,-0.0911 -0.9679,-0.27388 -0.23656,-0.18817 -0.3761,-0.43852 -0.4191,-0.75034 h -2.73368 c 0.0538,0.60215 0.26042,1.1239 0.62063,1.56476 0.36022,0.44086 0.84407,0.7794 1.4516,1.01596 0.60752,0.23655 1.30381,0.35501 2.08876,0.35501 0.7957,0 1.49198,-0.12083 2.08876,-0.36276 0.60215,-0.24732 1.0702,-0.59164 1.40353,-1.0325 0.33872,-0.44086 0.50798,-0.95156 0.50798,-1.53221 0,-0.63441 -0.21006,-1.13984 -0.62942,-1.51618 -0.41398,-0.37635 -1.06183,-0.64487 -1.94355,-0.80616 l -1.70946,-0.3147 c -0.29032,-0.0538 -0.51619,-0.13959 -0.67747,-0.25787 -0.16129,-0.11828 -0.24185,-0.26648 -0.24185,-0.4439 0,-0.20968 0.0993,-0.38421 0.29817,-0.524 0.2043,-0.13979 0.48676,-0.20981 0.84698,-0.20981 0.37097,0 0.6745,0.0998 0.91105,0.29869 0.24193,0.19355 0.36574,0.44048 0.37104,0.74156 h 2.55643 c -0.0161,-0.60753 -0.18777,-1.12876 -0.51573,-1.56424 -0.32258,-0.44086 -0.77431,-0.77992 -1.35495,-1.01648 -0.58065,-0.24194 -1.26878,-0.36277 -2.06448,-0.36277 z m -9.58907,2.14509 c 0.35483,0 0.66415,0.0887 0.92759,0.26613 0.26344,0.17742 0.46771,0.42776 0.61288,0.75035 0.15055,0.32258 0.22583,0.70139 0.22583,1.13688 0,0.43548 -0.0753,0.81719 -0.22583,1.14515 -0.14516,0.32258 -0.34944,0.5724 -0.61288,0.74982 -0.26344,0.17742 -0.57276,0.26614 -0.92759,0.26614 -0.33334,0 -0.62633,-0.0858 -0.87902,-0.25787 -0.24731,-0.17204 -0.43817,-0.41949 -0.57258,-0.74207 -0.12903,-0.32258 -0.19327,-0.70956 -0.19327,-1.16117 0,-0.44624 0.0642,-0.83084 0.19327,-1.15342 0.13441,-0.32258 0.32527,-0.56951 0.57258,-0.74156 0.25269,-0.17204 0.54568,-0.25838 0.87902,-0.25838 z" />
  </g>
</svg>
