<?xml version="1.0" encoding="UTF-8" standalone="no"?>
<!-- Created with Inkscape (http://www.inkscape.org/) -->

<svg
   width="43.179268mm"
   height="31.000183mm"
   viewBox="0 0 43.179268 31.000183"
   version="1.1"
   id="svg1"
   xmlns="http://www.w3.org/2000/svg"
   xmlns:svg="http://www.w3.org/2000/svg">
  <defs
     id="defs1" />
  <g
     id="layer1"
     transform="translate(-120,-10)">
    <path
       id="text1-8-8"
       style="font-size:9.59001px;font-family:'Adwaita Sans';-inkscape-font-specification:'Adwaita Sans, @opsz=32,wght=800';font-variation-settings:'opsz' 32, 'wght' 800;letter-spacing:0px;fill:#ff8c66;fill-opacity:1;stroke-width:0.355747"
       d="M 140.60288,9.9999997 V 15.87096 H 120 v 7.82691 h 20.60288 v 5.86993 a 9.7838,9.7838003 0 0 0 7.8264,-3.92483 v 2.94659 a 8.8054207,8.80542 0 0 0 7.82743,-4.81107 v 2.8546 a 6.8486602,6.8486603 0 0 0 6.84867,-6.84867 6.8486602,6.8486603 0 0 0 -6.84867,-6.84868 v 2.81481 a 8.8054207,8.80542 0 0 0 -7.82743,-4.7718 v 2.94659 a 9.7838,9.7838003 0 0 0 -7.8264,-3.9253403 z m -5.21621,15.4998303 0.0181,8.855272 c 0,0.69893 0.11556,1.29834 0.34674,1.79834 0.23119,0.5 0.56446,0.88409 0.99994,1.1529 0.44086,0.26345 0.96788,0.39533 1.58079,0.39533 0.82258,0 1.48148,-0.22297 1.9761,-0.66921 0.28453,-0.25699 0.52589,-0.56762 0.73381,-0.92036 v 1.40405 h 2.74195 v -6.88123 c -0.80042,0.33373 -1.70217,0.54927 -2.7926,0.54467 l 0.0181,2.44946 c 0,0.3871 -0.059,0.70694 -0.17725,0.95963 -0.11828,0.24731 -0.28755,0.4329 -0.50798,0.55656 -0.21505,0.12365 -0.46776,0.18551 -0.75809,0.18551 -0.43548,0 -0.77691,-0.13425 -1.02423,-0.40307 -0.24193,-0.26882 -0.36166,-0.65342 -0.36276,-1.15342 l -0.0181,-8.274432 z m -15.33654,5.2e-4 v 12.015802 h 2.90318 v -3.8871 h 1.99988 c 0.92474,0 1.72605,-0.16638 2.40347,-0.49971 0.6828,-0.33334 1.2093,-0.80376 1.58027,-1.41129 0.37097,-0.60752 0.55656,-1.3254 0.55656,-2.153352 0,-0.83334 -0.18559,-1.55358 -0.55656,-2.16111 -0.36559,-0.60753 -0.88683,-1.07557 -1.56425,-1.40353 -0.67742,-0.33334 -1.47874,-0.49971 -2.40347,-0.49971 z m 10.55647,0 v 9.556002 c 0,0.87635 0.23402,1.50551 0.70176,1.88723 0.47312,0.38172 1.23364,0.57257 2.28203,0.57257 h 0.40308 0.40359 v -2.08049 h -0.17777 -0.16898 c -0.23118,0 -0.40098,-0.0513 -0.50849,-0.15348 -0.10752,-0.10215 -0.16123,-0.26616 -0.16123,-0.49196 V 25.50035 Z m -7.65329,2.40295 h 1.81436 c 0.3871,0 0.72037,0.07 0.99994,0.20981 0.28495,0.1344 0.50555,0.32526 0.66146,0.57257 0.15591,0.24194 0.2341,0.53493 0.2341,0.87902 0,0.33333 -0.0782,0.626322 -0.2341,0.879012 -0.15591,0.24731 -0.37651,0.43818 -0.66146,0.57258 -0.27957,0.13441 -0.61284,0.20154 -0.99994,0.20154 h -1.81436 z m 30.92835,0.32505 c -3e-4,0.29043 -1.7383,1.34704 -2.74453,1.44383 l -0.0227,0.521422 h -0.008 c -0.17205,-0.301072 -0.38211,-0.553792 -0.62942,-0.758092 -0.24731,-0.20431 -0.52399,-0.35726 -0.83044,-0.45941 -0.30108,-0.10751 -0.63725,-0.16123 -1.00821,-0.16123 -0.72043,0 -1.35486,0.18796 -1.90324,0.56431 -0.54839,0.37097 -0.97854,0.884562 -1.29036,1.540472 -0.31183,0.65592 -0.46768,1.40591 -0.46768,2.25 0,0.83333 0.15058,1.57227 0.45166,2.21743 0.30645,0.64516 0.73659,1.15349 1.29036,1.52446 0.55376,0.36559 1.20161,0.54828 1.94355,0.54828 0.37096,0 0.7124,-0.0513 1.02422,-0.15348 0.31721,-0.10215 0.5944,-0.26037 0.83096,-0.47542 0.24194,-0.21505 0.43806,-0.48935 0.5886,-0.82269 h 0.008 v 1.31465 c 0,0.56452 -0.13426,0.98888 -0.40308,1.27382 -0.26882,0.29032 -0.66106,0.43564 -1.17719,0.43564 -0.26344,0 -0.49746,-0.035 -0.70177,-0.10491 -0.2043,-0.0699 -0.37357,-0.16914 -0.50797,-0.29817 -0.13442,-0.12903 -0.22603,-0.2796 -0.27441,-0.45165 h -2.65306 c 0.086,0.54301 0.28741,1.02686 0.60461,1.45159 0.3172,0.43011 0.76604,0.76627 1.34669,1.00821 0.58064,0.24193 1.30957,0.36277 2.18591,0.36277 0.8871,0 1.65578,-0.13716 2.30632,-0.41135 0.65054,-0.27419 1.15019,-0.70145 1.49965,-1.28209 0.35484,-0.58065 0.53227,-1.33353 0.53227,-2.25826 z m 5.14438,0.59427 c -0.79032,0 -1.47318,0.11557 -2.04844,0.34675 -0.5699,0.22581 -1.0082,0.54566 -1.31465,0.959632 -0.30108,0.41398 -0.45165,0.90072 -0.45165,1.45986 0,0.67205 0.2177,1.22065 0.65319,1.64538 0.44086,0.42473 1.08055,0.71194 1.91926,0.86248 l 1.54046,0.2744 c 0.33871,0.0591 0.59431,0.14785 0.76636,0.26614 0.17742,0.1129 0.26614,0.26348 0.26614,0.45165 0,0.21505 -0.10793,0.38959 -0.32298,0.524 -0.21505,0.13441 -0.51331,0.20154 -0.89504,0.20154 -0.40322,0 -0.72596,-0.0911 -0.96789,-0.27389 -0.23655,-0.18817 -0.37609,-0.43851 -0.41909,-0.75034 h -2.73368 c 0.0538,0.60215 0.26042,1.1239 0.62063,1.56476 0.36021,0.44086 0.84406,0.7794 1.45159,1.01596 0.60753,0.23656 1.30381,0.35502 2.08875,0.35502 0.7957,0 1.49199,-0.12084 2.08876,-0.36277 0.60215,-0.24731 1.0702,-0.59164 1.40354,-1.0325 0.33872,-0.44086 0.50797,-0.95156 0.50797,-1.5322 0,-0.63441 -0.21006,-1.13985 -0.62941,-1.51619 -0.41398,-0.37634 -1.06183,-0.64487 -1.94356,-0.80615 l -1.70945,-0.31471 c -0.29032,-0.0538 -0.51619,-0.13958 -0.67748,-0.25787 -0.16128,-0.11827 -0.24184,-0.26648 -0.24184,-0.4439 0,-0.20967 0.0993,-0.3842 0.29817,-0.524 0.2043,-0.13979 0.48676,-0.2098 0.84697,-0.2098 0.37097,0 0.6745,0.0998 0.91106,0.29869 0.24192,0.19354 0.36574,0.44048 0.37104,0.74155 h 2.55643 c -0.0161,-0.60752 -0.18777,-1.12876 -0.51573,-1.56424 -0.32258,-0.440862 -0.77431,-0.779922 -1.35496,-1.016482 -0.58064,-0.24193 -1.26877,-0.36277 -2.06447,-0.36277 z m -9.58907,2.145092 c 0.35484,0 0.66415,0.0887 0.92759,0.26614 0.26344,0.17741 0.46772,0.42776 0.61289,0.75034 0.15054,0.32258 0.22582,0.7014 0.22582,1.13688 0,0.43548 -0.0753,0.81719 -0.22582,1.14515 -0.14517,0.32258 -0.34945,0.57241 -0.61289,0.74982 -0.26344,0.17742 -0.57275,0.26614 -0.92759,0.26614 -0.33333,0 -0.62633,-0.0858 -0.87902,-0.25787 -0.24731,-0.17204 -0.43817,-0.41949 -0.57257,-0.74207 -0.12904,-0.32258 -0.19327,-0.70956 -0.19327,-1.16117 0,-0.44624 0.0642,-0.83084 0.19327,-1.15342 0.13441,-0.32258 0.32526,-0.5695 0.57257,-0.74155 0.25269,-0.17205 0.54569,-0.25839 0.87902,-0.25839 z" />
  </g>
</svg>
